<mxfile host="app.diagrams.net" modified="2023-05-27T10:24:24.805Z" agent="Mozilla/5.0 (Windows NT 10.0; Win64; x64) AppleWebKit/537.36 (KHTML, like Gecko) Chrome/112.0.0.0 Safari/537.36 OPR/98.0.0.0 (Edition std-1)" etag="-DxqFcSmDjolHFbkqKQT" version="21.3.4" type="device">
  <diagram name="Página-1" id="nCPI5RXXdza00SGEmFBh">
    <mxGraphModel dx="692" dy="511" grid="1" gridSize="10" guides="1" tooltips="1" connect="1" arrows="1" fold="1" page="1" pageScale="1" pageWidth="827" pageHeight="1169" math="0" shadow="0">
      <root>
        <mxCell id="0" />
        <mxCell id="1" parent="0" />
        <mxCell id="YGmnGn4mggwAhiVQaYRk-1" value="" style="whiteSpace=wrap;html=1;aspect=fixed;strokeWidth=3;" vertex="1" parent="1">
          <mxGeometry x="160" y="80" width="330" height="330" as="geometry" />
        </mxCell>
        <mxCell id="YGmnGn4mggwAhiVQaYRk-3" value="&lt;font size=&quot;1&quot; style=&quot;&quot;&gt;&lt;b style=&quot;font-size: 36px;&quot;&gt;Veiculos&lt;/b&gt;&lt;/font&gt;" style="text;html=1;strokeColor=none;fillColor=none;align=center;verticalAlign=middle;whiteSpace=wrap;rounded=0;" vertex="1" parent="1">
          <mxGeometry x="190" y="80" width="270" height="60" as="geometry" />
        </mxCell>
        <mxCell id="YGmnGn4mggwAhiVQaYRk-4" value="" style="endArrow=none;html=1;rounded=0;strokeWidth=2;entryX=1.004;entryY=0.186;entryDx=0;entryDy=0;entryPerimeter=0;" edge="1" parent="1" target="YGmnGn4mggwAhiVQaYRk-1">
          <mxGeometry width="50" height="50" relative="1" as="geometry">
            <mxPoint x="160" y="140" as="sourcePoint" />
            <mxPoint x="470" y="140" as="targetPoint" />
            <Array as="points">
              <mxPoint x="320" y="140" />
            </Array>
          </mxGeometry>
        </mxCell>
        <mxCell id="YGmnGn4mggwAhiVQaYRk-5" value="&lt;font style=&quot;font-size: 15px;&quot;&gt;&lt;span style=&quot;background-color: initial;&quot;&gt;Veiculo (int rodas , String locomução ,boolean mutor)&lt;br&gt;&lt;/span&gt;&lt;br&gt;&lt;/font&gt;&lt;br&gt;&lt;div&gt;&lt;/div&gt;" style="text;html=1;strokeColor=none;fillColor=none;align=left;verticalAlign=middle;whiteSpace=wrap;rounded=0;" vertex="1" parent="1">
          <mxGeometry x="170" y="170" width="310" height="20" as="geometry" />
        </mxCell>
        <mxCell id="YGmnGn4mggwAhiVQaYRk-6" value="" style="endArrow=none;html=1;rounded=0;exitX=0;exitY=0;exitDx=0;exitDy=0;" edge="1" parent="1" source="YGmnGn4mggwAhiVQaYRk-5" target="YGmnGn4mggwAhiVQaYRk-7">
          <mxGeometry width="50" height="50" relative="1" as="geometry">
            <mxPoint x="330" y="250" as="sourcePoint" />
            <mxPoint x="120" y="220" as="targetPoint" />
            <Array as="points">
              <mxPoint x="170" y="220" />
            </Array>
          </mxGeometry>
        </mxCell>
        <mxCell id="YGmnGn4mggwAhiVQaYRk-7" value="&lt;font style=&quot;font-size: 15px;&quot;&gt;Carro (String marca, String mudanças, boolean buzina)&lt;/font&gt;" style="text;html=1;strokeColor=none;fillColor=none;align=left;verticalAlign=middle;whiteSpace=wrap;rounded=0;" vertex="1" parent="1">
          <mxGeometry x="190" y="205" width="290" height="30" as="geometry" />
        </mxCell>
        <mxCell id="YGmnGn4mggwAhiVQaYRk-8" value="" style="endArrow=none;html=1;rounded=0;" edge="1" parent="1" target="YGmnGn4mggwAhiVQaYRk-9">
          <mxGeometry width="50" height="50" relative="1" as="geometry">
            <mxPoint x="170" y="220" as="sourcePoint" />
            <mxPoint x="230" y="250" as="targetPoint" />
            <Array as="points">
              <mxPoint x="170" y="265" />
            </Array>
          </mxGeometry>
        </mxCell>
        <mxCell id="YGmnGn4mggwAhiVQaYRk-9" value="&lt;font style=&quot;font-size: 15px;&quot;&gt;Aeronave (int mutores, boolean rodas_converciveis, boolean publico)&lt;/font&gt;" style="text;html=1;strokeColor=none;fillColor=none;align=left;verticalAlign=middle;whiteSpace=wrap;rounded=0;" vertex="1" parent="1">
          <mxGeometry x="190" y="250" width="300" height="30" as="geometry" />
        </mxCell>
        <mxCell id="YGmnGn4mggwAhiVQaYRk-10" value="" style="endArrow=none;html=1;rounded=0;exitX=0.067;exitY=1.2;exitDx=0;exitDy=0;exitPerimeter=0;entryX=0;entryY=0.5;entryDx=0;entryDy=0;" edge="1" parent="1" source="YGmnGn4mggwAhiVQaYRk-9" target="YGmnGn4mggwAhiVQaYRk-11">
          <mxGeometry width="50" height="50" relative="1" as="geometry">
            <mxPoint x="330" y="230" as="sourcePoint" />
            <mxPoint x="380" y="180" as="targetPoint" />
            <Array as="points">
              <mxPoint x="210" y="320" />
            </Array>
          </mxGeometry>
        </mxCell>
        <mxCell id="YGmnGn4mggwAhiVQaYRk-11" value="&lt;font style=&quot;font-size: 15px;&quot;&gt;Avião (int Asas, int passageiros, String piloto)&lt;/font&gt;" style="text;html=1;strokeColor=none;fillColor=none;align=left;verticalAlign=middle;whiteSpace=wrap;rounded=0;" vertex="1" parent="1">
          <mxGeometry x="230" y="300" width="240" height="40" as="geometry" />
        </mxCell>
        <mxCell id="YGmnGn4mggwAhiVQaYRk-12" value="" style="endArrow=none;html=1;rounded=0;" edge="1" parent="1" target="YGmnGn4mggwAhiVQaYRk-14">
          <mxGeometry width="50" height="50" relative="1" as="geometry">
            <mxPoint x="210" y="320" as="sourcePoint" />
            <mxPoint x="230" y="360" as="targetPoint" />
            <Array as="points">
              <mxPoint x="210" y="360" />
            </Array>
          </mxGeometry>
        </mxCell>
        <mxCell id="YGmnGn4mggwAhiVQaYRk-14" value="&lt;font style=&quot;font-size: 15px;&quot;&gt;Helicóptero (int hélices, int passageiros, String piloto)&lt;/font&gt;" style="text;html=1;strokeColor=none;fillColor=none;align=left;verticalAlign=middle;whiteSpace=wrap;rounded=0;" vertex="1" parent="1">
          <mxGeometry x="230" y="340" width="250" height="40" as="geometry" />
        </mxCell>
      </root>
    </mxGraphModel>
  </diagram>
</mxfile>
